<svg width="115" height="115" viewBox="0 0 115 115" fill="none" xmlns="http://www.w3.org/2000/svg">
<path d="M36.8697 76.8922C58.7771 78.2362 77.6261 61.5663 78.9701 39.659C79.1986 35.9351 78.9062 32.2964 78.1546 28.8156C78.0023 28.1105 78.3186 27.4489 78.7514 27.1215C78.9544 26.968 79.1035 26.9478 79.1635 26.9502L79.1651 26.9503C79.1925 26.9513 79.3067 26.9555 79.4991 27.1658C85.8252 34.0848 89.4434 43.4553 88.8242 53.5486C87.612 73.3061 70.6128 88.3401 50.8553 87.1279C41.9894 86.584 34.0789 82.8639 28.156 77.1402C27.9514 76.9425 27.9503 76.8281 27.95 76.7999L27.95 76.7984C27.9493 76.737 27.9741 76.5869 28.1342 76.3867C28.4756 75.9599 29.1474 75.6614 29.8472 75.832C32.1147 76.3848 34.4613 76.7444 36.8697 76.8922Z" stroke="#FFFCF2" stroke-width="3.9"/>
</svg>
